{"title":"Kylie Minogue - Flower {M4A+MP4} (1080p)x264 [VX][P2PDL]","uid":7687385,"size":39257528,"categoryP":"video","categoryS":"music_videos","magnet":"?xt=urn:btih:fb527521de662e3f3e51407017e9cff9b90e85a6&amp;dn=Kylie+Minogue+-+Flower+%7BM4A%2BMP4%7D+%281080p%29x264+%5BVX%5D%5BP2PDL%5D&amp;tr=udp%3A%2F%2Ftracker.openbittorrent.com%3A80&amp;tr=udp%3A%2F%2Fopen.demonii.com%3A1337&amp;tr=udp%3A%2F%2Ftracker.coppersurfer.tk%3A6969&amp;tr=udp%3A%2F%2Fexodus.desync.com%3A6969","seeders":1,"leechers":0,"uploader":"Vitamin_X","files":-1,"time":1348995898,"description":"Music video by Kylie Minogue performing Flower. P Line (p) 2012, the copyright in this audiovisual recording is owned by EMI Records Ltd.\n\n\n\t\t           1080p Full HD MP4 Video\n                                     +\n                            96 kbps/VBR M4A Audio\n\nCover:  &lt;a href=&quot;\nhttp://www.shotpix.com/images/91349185917153877037.jpg&quot; rel=&quot;nofollow&quot; target=&quot;_NEW&quot;&gt;\nhttp://www.shotpix.com/images/91349185917153877037.jpg&lt;/a&gt;\n\nSing along!\nEnglish subtitles included.\n\nGeneral\nFormat                         : MPEG-4\nFormat profile                 : Base Media / Version 2\nCodec ID                       : mp42\nFile size                      : 34.7 MiB\nDuration                       : 3mn 38s\nOverall bit rate mode          : Variable\nOverall bit rate               : 1 334 Kbps\n\n\nVideo\nID                             : 1\nFormat                         : AVC\nFormat/Info                    : Advanced Video Codec\nDuration                       : 3mn 38s\nBit rate mode                  : Variable\nBit rate                       : 1 200 Kbps\nWidth                          : 1 920 pixels\nHeight                         : 1 080 pixels\nDisplay aspect ratio           : 16:9\nFrame rate mode                : Constant\nFrame rate                     : 25.000 fps\nColor space                    : YUV\nChroma subsampling             : 4:2:0\nStream size                    : 31.3 MiB (90%)\n\n\nAudio\nID                             : 2\nFormat                         : AAC\nFormat/Info                    : Advanced Audio Codec\nFormat profile                 : LC\nDuration                       : 3mn 38s\nBit rate mode                  : Variable\nBit rate                       : 126 Kbps\nMaximum bit rate               : 147 Kbps\nChannel(s)                     : 2 channels\nChannel positions              : Front: L R\nSampling rate                  : 48.0 KHz\nStream size                    : 3.27 MiB (9%)\n\n\n\n\nScreens:\n\n &lt;a href=&quot;\nhttp://www.shotpix.com/images/87286664831270459349.jpg&quot; rel=&quot;nofollow&quot; target=&quot;_NEW&quot;&gt;\nhttp://www.shotpix.com/images/87286664831270459349.jpg&lt;/a&gt; &lt;a href=&quot;\nhttp://www.shotpix.com/images/70383576179822802558.jpg&quot; rel=&quot;nofollow&quot; target=&quot;_NEW&quot;&gt;\nhttp://www.shotpix.com/images/70383576179822802558.jpg&lt;/a&gt;\n\n\nThumbs:\n &lt;a href=&quot;\nhttp://www.shotpix.com/images/04838779216905092253.jpg&quot; rel=&quot;nofollow&quot; target=&quot;_NEW&quot;&gt;\nhttp://www.shotpix.com/images/04838779216905092253.jpg&lt;/a&gt;\n\n\n------------------------------------------------------------------------\n\n\nNotes:\n\n* Best played on VLC Media Player.\n* Install shark007 codecs in case of any kind of problem in playback (For non-VLC Media Player users).\n* Alternatively, install Core AVC codecs, the fastest decoder that there is coupled with Community Center Codec Pack and play on Windows Media Player Classic.\n* Read NFO\n* Help in seeding this torrent as much as you can. \n\nGreets to: srkfan, VYTO, MgB, staff members at ExtraTorrent, TPB,KAT, 1337x, PublicHD, Ahashare,\nSilverTorrent, TorrentMafia, P2PDL, and all others\n\n\nEncoder Notes: Looking For Early Access To Anything You Can Provide DVDScr, R5, DVDRips, BluRay, Direct Audio, Early Music\nReleases, Seedboxes, Links, Dedicated Servers anything u can provide, Advance / Promo CDs/DVDs. If You Got anything to\noffer contact me at &quot;&lt;a class=&quot;__cf_email__&quot; href=&quot;/cdn-cgi/l/email-protection&quot; data-cfemail=&quot;573438392336342317233e392e3a793222&quot;&gt;[email&amp;#160;protected]&lt;/a&gt;&lt;script cf-hash='f9e31' type=&quot;text/javascript&quot;&gt;\n/* &lt;![CDATA[ */!function(){try{var t=&quot;currentScript&quot;in document?document.currentScript:function(){for(var t=document.getElementsByTagName(&quot;script&quot;),e=t.length;e--;)if(t[e].getAttribute(&quot;cf-hash&quot;))return t[e]}();if(t&amp;&amp;t.previousSibling){var e,r,n,i,c=t.previousSibling,a=c.getAttribute(&quot;data-cfemail&quot;);if(a){for(e=&quot;&quot;,r=parseInt(a.substr(0,2),16),n=2;a.length-n;n+=2)i=parseInt(a.substr(n,2),16)^r,e+=String.fromCharCode(i);e=document.createTextNode(e),c.parentNode.replaceChild(e,c)}}}catch(u){}}();/* ]]&gt; */&lt;/script&gt;&quot;\n\n                                   Enjoy!","torrent":{"xt":"urn:btih:fb527521de662e3f3e51407017e9cff9b90e85a6","amp;dn":"Kylie+Minogue+-+Flower+%7BM4A%2BMP4%7D+%281080p%29x264+%5BVX%5D%5BP2PDL%5D","amp;tr":["udp%3A%2F%2Ftracker.openbittorrent.com%3A80","udp%3A%2F%2Fopen.demonii.com%3A1337","udp%3A%2F%2Ftracker.coppersurfer.tk%3A6969","udp%3A%2F%2Fexodus.desync.com%3A6969"],"infoHash":"fb527521de662e3f3e51407017e9cff9b90e85a6","infoHashBuffer":{"type":"Buffer","data":[251,82,117,33,222,102,46,63,62,81,64,112,23,233,207,249,185,14,133,166]},"announce":[],"urlList":[]}}